# Blender v2.79 (sub 0) OBJ File: ''
# www.blender.org
mtllib lwlplknfff3.mtl
o handle
v -0.070245 0.251093 0.049723
v -0.070245 0.251093 0.072157
v -0.052684 0.308006 0.072157
v -0.052684 0.308006 0.049723
v -0.039025 0.293251 0.045569
v -0.052684 0.251093 0.044114
v -0.039025 0.208934 0.045569
v -0.052684 0.194179 0.049723
v -0.052684 0.194179 0.072157
v -0.000000 0.251093 0.042245
v -0.000000 0.308006 0.044114
v 0.039024 0.293251 0.045569
v 0.052683 0.251093 0.044114
v 0.039024 0.208934 0.045569
v -0.000000 0.194179 0.044114
v 0.070244 0.251092 0.690391
v 0.070244 0.251092 0.634119
v 0.052683 0.308006 0.634119
v 0.052683 0.308006 0.690391
v 0.039024 0.293251 0.726891
v 0.052683 0.251092 0.739666
v 0.039024 0.208934 0.726891
v 0.052683 0.194179 0.690391
v 0.052683 0.194179 0.634119
v -0.000000 0.251092 0.756090
v -0.000000 0.308006 0.739666
v -0.039025 0.293251 0.726891
v -0.052684 0.251092 0.739666
v -0.039025 0.208934 0.726891
v -0.000000 0.194179 0.739666
v -0.000000 0.175208 0.049723
v -0.000000 0.175208 0.072157
v 0.052683 0.194179 0.049723
v 0.052683 0.194179 0.072157
v -0.000000 0.326978 0.049723
v -0.000000 0.326978 0.072157
v 0.052683 0.308006 0.072157
v 0.052683 0.308006 0.049723
v -0.000000 0.326978 0.596699
v -0.000000 0.326978 0.634119
v 0.052683 0.308006 0.596699
v 0.052683 0.308006 0.528592
v -0.000000 0.326978 0.528592
v -0.052684 0.308006 0.528592
v -0.052684 0.308006 0.596699
v -0.052684 0.308006 0.634119
v -0.000000 0.175207 0.596699
v -0.000000 0.175207 0.634119
v -0.052684 0.194179 0.634119
v -0.052684 0.194179 0.596699
v -0.052684 0.194179 0.528592
v -0.000000 0.175207 0.528592
v 0.052683 0.194179 0.528592
v 0.052683 0.194179 0.596699
v 0.070244 0.251092 0.380257
v 0.070244 0.251093 0.222094
v 0.052683 0.308006 0.222094
v 0.052683 0.308006 0.380257
v 0.070244 0.251092 0.528592
v 0.052683 0.194179 0.380257
v 0.052683 0.194179 0.222094
v -0.070245 0.251092 0.596699
v -0.070245 0.251092 0.634119
v -0.070245 0.251092 0.528592
v 0.070244 0.251093 0.124504
v 0.070244 0.251093 0.072157
v 0.052683 0.308006 0.124504
v 0.052683 0.194179 0.124504
v -0.000000 0.326978 0.380257
v -0.000000 0.326978 0.222094
v -0.052684 0.308006 0.222094
v -0.052684 0.308006 0.380257
v -0.000000 0.175207 0.380257
v -0.052684 0.194179 0.380257
v -0.052684 0.194179 0.222094
v -0.000000 0.175208 0.222094
v -0.070245 0.251092 0.380257
v -0.070245 0.251093 0.222094
v 0.070244 0.251093 0.049723
v -0.000000 0.326978 0.124504
v -0.052684 0.308006 0.124504
v -0.000000 0.175208 0.124504
v -0.052684 0.194179 0.124504
v -0.070245 0.251093 0.124504
v -0.070245 0.251092 0.690391
v -0.052684 0.308006 0.690391
v -0.052684 0.194179 0.690391
v -0.000000 0.175207 0.690391
v -0.000000 0.326978 0.690391
v 0.070244 0.251092 0.596699
vt 0.500000 0.003492
vt 0.500000 0.013968
vt 0.333333 0.013968
vt 0.333333 0.003492
vt 0.333333 0.000000
vt 0.500000 0.000000
vt 0.666667 0.000000
vt 0.666667 0.003492
vt 0.666667 0.013968
vt 0.166667 0.166667
vt 0.166667 0.333333
vt 0.000000 0.333333
vt 0.000000 0.166667
vt 0.000000 0.000000
vt 0.166667 0.000000
vt 0.333333 0.000000
vt 0.333333 0.166667
vt 0.333333 0.333333
vt 0.364012 0.500000
vt 0.390289 0.500000
vt 0.390289 0.666667
vt 0.364012 0.666667
vt 0.333333 0.666667
vt 0.333333 0.500000
vt 0.333333 0.333333
vt 0.364012 0.333333
vt 0.390289 0.333333
vt 0.166667 0.500000
vt 0.000000 0.500000
vt 0.000000 0.333333
vt 0.166667 0.333333
vt 0.333333 0.333333
vt 0.333333 0.500000
vt 0.333333 0.666667
vt 0.166667 0.666667
vt 0.000000 0.666667
vt 0.003492 0.833333
vt 0.013968 0.833333
vt 0.013968 1.000000
vt 0.003492 1.000000
vt 0.000000 1.000000
vt 0.000000 0.833333
vt 0.000000 0.666667
vt 0.003492 0.666667
vt 0.013968 0.666667
vt 0.996508 0.166667
vt 0.986032 0.166667
vt 0.986032 0.000000
vt 0.996508 0.000000
vt 1.000000 0.000000
vt 1.000000 0.166667
vt 1.000000 0.333333
vt 0.996508 0.333333
vt 0.986032 0.333333
vt 0.741095 0.166667
vt 0.723622 0.166667
vt 0.723622 0.000000
vt 0.741095 0.000000
vt 0.772898 0.000000
vt 0.772898 0.166667
vt 0.772898 0.333333
vt 0.741095 0.333333
vt 0.723622 0.333333
vt 0.258905 0.833333
vt 0.276378 0.833333
vt 0.276378 1.000000
vt 0.258905 1.000000
vt 0.227102 1.000000
vt 0.227102 0.833333
vt 0.227102 0.666667
vt 0.258905 0.666667
vt 0.276378 0.666667
vt 0.508831 0.500000
vt 0.582685 0.500000
vt 0.582685 0.666667
vt 0.508831 0.666667
vt 0.439565 0.666667
vt 0.439565 0.500000
vt 0.439565 0.333333
vt 0.508831 0.333333
vt 0.582685 0.333333
vt 0.500000 0.258905
vt 0.500000 0.276378
vt 0.333333 0.276378
vt 0.333333 0.258905
vt 0.333333 0.227102
vt 0.500000 0.227102
vt 0.666667 0.227102
vt 0.666667 0.258905
vt 0.666667 0.276378
vt 0.628255 0.500000
vt 0.652699 0.500000
vt 0.652699 0.666667
vt 0.628255 0.666667
vt 0.628255 0.333333
vt 0.652699 0.333333
vt 0.842164 0.166667
vt 0.842164 0.000000
vt 0.916019 0.000000
vt 0.916019 0.166667
vt 0.916019 0.333333
vt 0.842164 0.333333
vt 0.157836 0.833333
vt 0.157836 1.000000
vt 0.083981 1.000000
vt 0.083981 0.833333
vt 0.083981 0.666667
vt 0.157836 0.666667
vt 0.500000 0.157836
vt 0.333333 0.157836
vt 0.333333 0.083981
vt 0.500000 0.083981
vt 0.666667 0.083981
vt 0.666667 0.157836
vt 0.663175 0.500000
vt 0.666667 0.500000
vt 0.666667 0.666667
vt 0.663175 0.666667
vt 0.663175 0.333333
vt 0.666667 0.333333
vt 0.961589 0.166667
vt 0.961589 0.000000
vt 0.961589 0.333333
vt 0.038411 0.833333
vt 0.038411 1.000000
vt 0.038411 0.666667
vt 0.500000 0.038411
vt 0.333333 0.038411
vt 0.666667 0.038411
vt 0.500000 0.302655
vt 0.500000 0.333333
vt 0.333333 0.302655
vt 0.666667 0.302655
vt 0.666667 0.333333
vt 0.302655 0.833333
vt 0.333333 0.833333
vt 0.333333 1.000000
vt 0.302655 1.000000
vt 0.302655 0.666667
vt 0.333333 0.666667
vt 0.697345 0.166667
vt 0.666667 0.166667
vt 0.666667 0.000000
vt 0.697345 0.000000
vt 0.697345 0.333333
vt 0.666667 0.333333
vt 0.407762 0.500000
vt 0.407762 0.666667
vt 0.407762 0.333333
vn -0.8285 -0.0000 -0.5600
vn -1.0000 -0.0000 0.0000
vn -0.7233 0.6905 0.0000
vn -0.6078 0.5819 -0.5403
vn -0.1330 0.1205 -0.9838
vn -0.1713 0.0000 -0.9852
vn -0.1330 -0.1205 -0.9838
vn -0.6078 -0.5819 -0.5403
vn -0.7233 -0.6905 0.0000
vn 0.0000 0.0000 -1.0000
vn -0.0000 0.1622 -0.9868
vn 0.1330 0.1205 -0.9838
vn 0.1713 0.0000 -0.9852
vn 0.1330 -0.1205 -0.9838
vn 0.0000 -0.1622 -0.9868
vn 0.9812 -0.0000 0.1932
vn 1.0000 -0.0000 -0.0000
vn 0.7233 0.6905 0.0000
vn 0.7079 0.6779 0.1981
vn 0.5781 0.5398 0.6119
vn 0.6942 -0.0000 0.7197
vn 0.5781 -0.5398 0.6119
vn 0.7079 -0.6779 0.1981
vn 0.7233 -0.6905 -0.0000
vn 0.0000 -0.0000 1.0000
vn 0.0000 0.6798 0.7334
vn -0.5781 0.5398 0.6119
vn -0.6942 -0.0000 0.7197
vn -0.5781 -0.5398 0.6119
vn 0.0000 -0.6799 0.7334
vn 0.0000 -0.8287 -0.5597
vn 0.0000 -1.0000 0.0000
vn 0.6078 -0.5819 -0.5403
vn -0.0000 0.8287 -0.5597
vn -0.0000 1.0000 0.0000
vn 0.6078 0.5819 -0.5403
vn 0.8285 -0.0000 -0.5600
vn -0.9812 -0.0000 0.1932
vn -0.7079 0.6779 0.1981
vn -0.7079 -0.6779 0.1981
vn -0.0000 -0.9788 0.2049
vn -0.0000 0.9788 0.2049
usemtl handle
s 1
f 1/1/1 2/2/2 3/3/3 4/4/4
f 1/1/1 4/4/4 5/5/5 6/6/6
f 1/1/1 6/6/6 7/7/7 8/8/8
f 1/1/1 8/8/8 9/9/9 2/2/2
f 10/10/10 6/11/6 5/12/5 11/13/11
f 10/10/10 11/13/11 12/14/12 13/15/13
f 10/10/10 13/15/13 14/16/14 15/17/15
f 10/10/10 15/17/15 7/18/7 6/11/6
f 16/19/16 17/20/17 18/21/18 19/22/19
f 16/19/16 19/22/19 20/23/20 21/24/21
f 16/19/16 21/24/21 22/25/22 23/26/23
f 16/19/16 23/26/23 24/27/24 17/20/17
f 25/28/25 21/29/21 20/30/20 26/31/26
f 25/28/25 26/31/26 27/32/27 28/33/28
f 25/28/25 28/33/28 29/34/29 30/35/30
f 25/28/25 30/35/30 22/36/22 21/29/21
f 31/37/31 32/38/32 9/39/9 8/40/8
f 31/37/31 8/40/8 7/41/7 15/42/15
f 31/37/31 15/42/15 14/43/14 33/44/33
f 31/37/31 33/44/33 34/45/24 32/38/32
f 35/46/34 36/47/35 37/48/18 38/49/36
f 35/46/34 38/49/36 12/50/12 11/51/11
f 35/46/34 11/51/11 5/52/5 4/53/4
f 35/46/34 4/53/4 3/54/3 36/47/35
f 39/55/35 40/56/35 18/57/18 41/58/18
f 39/55/35 41/58/18 42/59/18 43/60/35
f 39/55/35 43/60/35 44/61/3 45/62/3
f 39/55/35 45/62/3 46/63/3 40/56/35
f 47/64/32 48/65/32 49/66/9 50/67/9
f 47/64/32 50/67/9 51/68/9 52/69/32
f 47/64/32 52/69/32 53/70/24 54/71/24
f 47/64/32 54/71/24 24/72/24 48/65/32
f 55/73/17 56/74/17 57/75/18 58/76/18
f 55/73/17 58/76/18 42/77/18 59/78/17
f 55/73/17 59/78/17 53/79/24 60/80/24
f 55/73/17 60/80/24 61/81/24 56/74/17
f 62/82/2 63/83/2 46/84/3 45/85/3
f 62/82/2 45/85/3 44/86/3 64/87/2
f 62/82/2 64/87/2 51/88/9 50/89/9
f 62/82/2 50/89/9 49/90/9 63/83/2
f 65/91/17 66/92/17 37/93/18 67/94/18
f 65/91/17 67/94/18 57/75/18 56/74/17
f 65/91/17 56/74/17 61/81/24 68/95/24
f 65/91/17 68/95/24 34/96/24 66/92/17
f 69/97/35 43/60/35 42/59/18 58/98/18
f 69/97/35 58/98/18 57/99/18 70/100/35
f 69/97/35 70/100/35 71/101/3 72/102/3
f 69/97/35 72/102/3 44/61/3 43/60/35
f 73/103/32 52/69/32 51/68/9 74/104/9
f 73/103/32 74/104/9 75/105/9 76/106/32
f 73/103/32 76/106/32 61/107/24 60/108/24
f 73/103/32 60/108/24 53/70/24 52/69/32
f 77/109/2 64/87/2 44/86/3 72/110/3
f 77/109/2 72/110/3 71/111/3 78/112/2
f 77/109/2 78/112/2 75/113/9 74/114/9
f 77/109/2 74/114/9 51/88/9 64/87/2
f 79/115/37 13/116/13 12/117/12 38/118/36
f 79/115/37 38/118/36 37/93/18 66/92/17
f 79/115/37 66/92/17 34/96/24 33/119/33
f 79/115/37 33/119/33 14/120/14 13/116/13
f 80/121/35 70/100/35 57/99/18 67/122/18
f 80/121/35 67/122/18 37/48/18 36/47/35
f 80/121/35 36/47/35 3/54/3 81/123/3
f 80/121/35 81/123/3 71/101/3 70/100/35
f 82/124/32 76/106/32 75/105/9 83/125/9
f 82/124/32 83/125/9 9/39/9 32/38/32
f 82/124/32 32/38/32 34/45/24 68/126/24
f 82/124/32 68/126/24 61/107/24 76/106/32
f 84/127/2 78/112/2 71/111/3 81/128/3
f 84/127/2 81/128/3 3/3/3 2/2/2
f 84/127/2 2/2/2 9/9/9 83/129/9
f 84/127/2 83/129/9 75/113/9 78/112/2
f 85/130/38 28/131/28 27/32/27 86/132/39
f 85/130/38 86/132/39 46/84/3 63/83/2
f 85/130/38 63/83/2 49/90/9 87/133/40
f 85/130/38 87/133/40 29/134/29 28/131/28
f 88/135/41 30/136/30 29/137/29 87/138/40
f 88/135/41 87/138/40 49/66/9 48/65/32
f 88/135/41 48/65/32 24/72/24 23/139/23
f 88/135/41 23/139/23 22/140/22 30/136/30
f 89/141/42 26/142/26 20/143/20 19/144/19
f 89/141/42 19/144/19 18/57/18 40/56/35
f 89/141/42 40/56/35 46/63/3 86/145/39
f 89/141/42 86/145/39 27/146/27 26/142/26
f 90/147/17 59/78/17 42/77/18 41/148/18
f 90/147/17 41/148/18 18/21/18 17/20/17
f 90/147/17 17/20/17 24/27/24 54/149/24
f 90/147/17 54/149/24 53/79/24 59/78/17
o blade_blade_NA
v -0.000000 0.251093 0.071883
v -0.000000 0.301196 0.069628
v -0.009057 0.288206 0.067874
v -0.009389 0.251093 0.069628
v -0.004852 0.213979 0.067874
v -0.000000 0.200989 0.069628
v 0.004852 0.213979 0.067874
v 0.009388 0.251093 0.069628
v 0.009056 0.288206 0.067874
v -0.000000 0.304604 -0.956598
v -0.004204 0.301806 -0.943512
v -0.004909 0.310746 -0.939653
v -0.000000 0.314574 -0.953739
v 0.004909 0.310746 -0.939653
v 0.004203 0.301806 -0.943512
v 0.002547 0.288515 -0.927018
v -0.000000 0.289039 -0.933286
v -0.002548 0.288515 -0.927018
v -0.000000 0.268928 -0.896281
v 0.003621 0.275050 -0.898275
v 0.004398 0.257266 -0.848700
v -0.000000 0.248604 -0.848314
v -0.004399 0.257266 -0.848700
v -0.003621 0.275050 -0.898275
v 0.008370 0.293413 -0.904257
v 0.008934 0.311776 -0.910238
v 0.012822 0.309236 -0.851015
v 0.011480 0.283251 -0.849857
v -0.000000 0.317898 -0.912232
v -0.008934 0.311776 -0.910238
v -0.012823 0.309236 -0.851015
v -0.000000 0.317898 -0.851401
v -0.008370 0.293413 -0.904257
v -0.011481 0.283251 -0.849858
v -0.012518 0.251093 0.062863
v -0.004658 0.200989 0.062863
v -0.014119 0.301196 0.062863
v -0.014119 0.301196 -0.011434
v -0.012518 0.251093 -0.011434
v -0.004658 0.200989 -0.011434
v -0.000000 0.317897 0.062863
v 0.014118 0.301196 0.062863
v 0.014118 0.301196 -0.011434
v -0.000000 0.317897 -0.011434
v 0.012517 0.251093 0.062863
v 0.004658 0.200989 0.062863
v 0.004658 0.200989 -0.011434
v 0.012517 0.251093 -0.011434
v -0.000000 0.184288 0.062863
v -0.000000 0.184288 -0.011434
v -0.012518 0.251093 -0.216286
v -0.004658 0.200989 -0.216286
v -0.014119 0.301196 -0.216286
v -0.014119 0.301413 -0.433915
v -0.012518 0.251961 -0.433384
v -0.004658 0.202509 -0.432853
v -0.000000 0.317897 -0.216286
v 0.014118 0.301196 -0.216286
v 0.014118 0.301413 -0.433915
v -0.000000 0.317897 -0.434092
v 0.012517 0.251093 -0.216286
v 0.004658 0.200989 -0.216286
v 0.004658 0.202509 -0.432853
v 0.012517 0.251961 -0.433384
v -0.000000 0.184288 -0.216286
v -0.000000 0.186024 -0.432677
v -0.012518 0.263056 -0.666593
v -0.004658 0.221924 -0.664857
v -0.004658 0.213820 -0.600874
v -0.012518 0.258425 -0.603962
v -0.014119 0.303029 -0.607049
v -0.014119 0.304187 -0.668330
v -0.014119 0.305570 -0.729772
v -0.012518 0.268587 -0.729868
v -0.004658 0.231604 -0.729965
v -0.000000 0.317897 -0.668909
v -0.000000 0.317897 -0.608078
v 0.014118 0.303029 -0.607049
v 0.014118 0.304187 -0.668330
v 0.014118 0.305570 -0.729772
v -0.000000 0.317897 -0.729739
v 0.012517 0.263056 -0.666593
v 0.012517 0.258425 -0.603962
v 0.004658 0.213820 -0.600874
v 0.004658 0.221924 -0.664857
v 0.004658 0.231604 -0.729965
v 0.012517 0.268587 -0.729868
v -0.000000 0.208214 -0.664278
v -0.000000 0.198952 -0.599845
v -0.000000 0.219276 -0.729997
v -0.012518 0.275147 -0.791342
v -0.004658 0.243084 -0.791921
v -0.014119 0.307210 -0.790763
v -0.000000 0.317897 -0.790570
v 0.014118 0.307210 -0.790763
v 0.012517 0.275147 -0.791342
v 0.004658 0.243084 -0.791921
v -0.000000 0.232397 -0.792114
v -0.000000 0.191234 -0.541587
v 0.004658 0.207067 -0.542295
v -0.004658 0.207067 -0.542295
v 0.012517 0.254566 -0.544417
v 0.014118 0.302065 -0.546540
v -0.000000 0.317897 -0.547247
v -0.014119 0.302065 -0.546540
v -0.012518 0.254566 -0.544417
vt 0.899047 0.812227
vt 0.899047 0.670050
vt 0.959500 0.670050
vt 0.937630 0.812227
vt 0.908469 1.000000
vt 0.899047 1.000000
vt 0.889624 1.000000
vt 0.860464 0.812227
vt 0.838594 0.670050
vt 0.983395 0.037832
vt 0.970381 0.037832
vt 0.966790 0.000000
vt 0.983395 0.000000
vt 1.000000 0.000000
vt 0.996409 0.037832
vt 0.993715 0.083205
vt 0.983395 0.083205
vt 0.973074 0.083205
vt 0.983395 0.143660
vt 0.992817 0.143660
vt 0.992817 0.207574
vt 0.983395 0.207574
vt 0.973972 0.207574
vt 0.973972 0.143660
vt 0.333978 0.043368
vt 0.411149 0.038967
vt 0.414526 0.077207
vt 0.304834 0.077342
vt 0.195141 0.077477
vt 0.256806 0.047768
vt 0.324715 0.020371
vt 0.365681 0.010185
vt 0.406647 0.000000
vt 0.899047 0.036352
vt 0.941221 0.036352
vt 0.960397 0.072704
vt 0.899047 0.072704
vt 0.837696 0.072704
vt 0.856873 0.036352
vt 0.882442 0.000000
vt 0.899047 0.000000
vt 0.915652 0.000000
vt 0.497327 0.043368
vt 0.574498 0.047768
vt 0.636163 0.077477
vt 0.526470 0.077342
vt 0.416778 0.077207
vt 0.420155 0.038967
vt 0.424658 0.000000
vt 0.465623 0.010185
vt 0.506589 0.020371
vt 0.623478 0.620765
vt 0.831304 0.621638
vt 0.831304 0.626984
vt 0.623478 0.626111
vt 0.415652 0.625238
vt 0.415652 0.619892
vt 0.415652 0.575850
vt 0.623478 0.576723
vt 0.831304 0.577596
vt 0.899047 0.619064
vt 0.966790 0.619064
vt 0.831304 0.619064
vt 0.831304 0.574665
vt 0.899047 0.574665
vt 0.966790 0.574665
vt 0.207826 0.620765
vt 0.415652 0.619892
vt 0.415652 0.625238
vt 0.207826 0.626111
vt 0.000000 0.626984
vt 0.000000 0.621638
vt 0.000000 0.577596
vt 0.207826 0.576723
vt 0.415652 0.575850
vt 0.983395 0.612183
vt 0.992818 0.612183
vt 0.992818 0.614586
vt 0.983395 0.614586
vt 0.973972 0.614586
vt 0.973972 0.612183
vt 0.973972 0.592385
vt 0.983395 0.592385
vt 0.992818 0.592385
vt 0.623478 0.455290
vt 0.831304 0.456163
vt 0.415652 0.454417
vt 0.415652 0.325307
vt 0.620844 0.326545
vt 0.826035 0.327783
vt 0.899047 0.452246
vt 0.966790 0.452246
vt 0.831304 0.452246
vt 0.831304 0.322087
vt 0.899047 0.322087
vt 0.966790 0.322087
vt 0.207826 0.455290
vt 0.415652 0.454417
vt 0.000000 0.456164
vt 0.005269 0.327783
vt 0.210460 0.326545
vt 0.415652 0.325307
vt 0.983395 0.537799
vt 0.992818 0.537799
vt 0.973972 0.537799
vt 0.973972 0.475770
vt 0.983395 0.475770
vt 0.992818 0.475770
vt 0.587182 0.187607
vt 0.758711 0.189103
vt 0.786812 0.227878
vt 0.601232 0.225025
vt 0.415652 0.222171
vt 0.415652 0.186112
vt 0.415652 0.150053
vt 0.570400 0.149753
vt 0.725147 0.149452
vt 0.899047 0.181761
vt 0.966789 0.181761
vt 0.966790 0.218113
vt 0.899047 0.218113
vt 0.831304 0.218113
vt 0.831304 0.181761
vt 0.831304 0.145409
vt 0.899047 0.145409
vt 0.966789 0.145409
vt 0.244122 0.187607
vt 0.415652 0.186112
vt 0.415652 0.222171
vt 0.230072 0.225025
vt 0.044492 0.227878
vt 0.072593 0.189103
vt 0.106157 0.149452
vt 0.260904 0.149753
vt 0.415652 0.150053
vt 0.983395 0.358231
vt 0.992817 0.358231
vt 0.992818 0.398701
vt 0.983395 0.398701
vt 0.973972 0.398701
vt 0.973972 0.358231
vt 0.973972 0.312888
vt 0.983395 0.312888
vt 0.992817 0.312888
vt 0.550495 0.112901
vt 0.685338 0.111808
vt 0.415652 0.113994
vt 0.899047 0.109057
vt 0.966789 0.109057
vt 0.831304 0.109057
vt 0.280809 0.112901
vt 0.415652 0.113994
vt 0.145966 0.111808
vt 0.983395 0.263326
vt 0.992817 0.263326
vt 0.973972 0.263326
vt 0.983395 0.433643
vt 0.992818 0.433643
vt 0.973972 0.433643
vt 0.218364 0.260563
vt 0.415652 0.258231
vt 0.021075 0.262896
vt 0.899047 0.254465
vt 0.966790 0.254465
vt 0.831304 0.254465
vt 0.612940 0.260563
vt 0.810229 0.262896
vt 0.415652 0.258231
vn -0.0000 -0.0077 1.0000
vn -0.0000 0.2459 0.9693
vn -0.5515 0.0688 0.8314
vn -0.6293 -0.0415 0.7760
vn -0.6905 -0.1206 0.7132
vn 0.0000 -0.3165 0.9486
vn 0.6905 -0.1206 0.7132
vn 0.6293 -0.0415 0.7760
vn 0.5515 0.0688 0.8314
vn 0.0000 -0.2344 -0.9721
vn -0.9243 -0.2496 -0.2887
vn -0.9127 0.3754 -0.1614
vn -0.0000 0.6734 -0.7392
vn 0.9127 0.3754 -0.1614
vn 0.9243 -0.2496 -0.2887
vn 0.8489 -0.4618 -0.2572
vn 0.0000 -0.8423 -0.5390
vn -0.8489 -0.4618 -0.2572
vn -0.0000 -0.9133 -0.4072
vn 0.8785 -0.4307 -0.2067
vn 0.9220 -0.3669 -0.1241
vn -0.0000 -0.9498 -0.3128
vn -0.9220 -0.3669 -0.1241
vn -0.8785 -0.4307 -0.2067
vn 0.9767 -0.1782 -0.1195
vn 0.9002 0.4286 -0.0771
vn 0.9002 0.4348 -0.0250
vn 0.9850 -0.1595 -0.0656
vn -0.0000 0.9983 -0.0584
vn -0.9002 0.4286 -0.0771
vn -0.9002 0.4348 -0.0250
vn -0.0000 1.0000 0.0040
vn -0.9767 -0.1782 -0.1195
vn -0.9850 -0.1595 -0.0656
vn -0.9657 -0.0835 0.2458
vn -0.9357 -0.2218 0.2745
vn -0.8444 0.3201 0.4296
vn -0.9444 0.3287 -0.0000
vn -0.9956 -0.0936 -0.0000
vn -0.9772 -0.2122 -0.0000
vn 0.0000 0.8748 0.4846
vn 0.8444 0.3201 0.4296
vn 0.9444 0.3287 0.0000
vn 0.0000 1.0000 0.0000
vn 0.9657 -0.0835 0.2458
vn 0.9357 -0.2218 0.2745
vn 0.9772 -0.2122 -0.0000
vn 0.9956 -0.0936 -0.0000
vn 0.0000 -0.8979 0.4402
vn 0.0000 -1.0000 -0.0000
vn -0.9956 -0.0940 -0.0002
vn -0.9771 -0.2130 -0.0007
vn -0.9442 0.3293 0.0001
vn -0.9431 0.3325 0.0004
vn -0.9954 -0.0959 -0.0017
vn -0.9762 -0.2170 -0.0052
vn 0.0000 1.0000 0.0002
vn 0.9442 0.3293 0.0001
vn 0.9431 0.3325 0.0004
vn 0.0000 1.0000 0.0017
vn 0.9956 -0.0940 -0.0002
vn 0.9771 -0.2130 -0.0007
vn 0.9762 -0.2170 -0.0052
vn 0.9954 -0.0959 -0.0017
vn 0.0000 -1.0000 -0.0038
vn -0.0000 -0.9997 -0.0259
vn -0.9933 -0.1153 -0.0116
vn -0.9654 -0.2584 -0.0347
vn -0.9705 -0.2395 -0.0281
vn -0.9943 -0.1063 -0.0092
vn -0.9352 0.3542 0.0024
vn -0.9283 0.3718 0.0030
vn -0.9189 0.3945 0.0037
vn -0.9917 -0.1279 -0.0155
vn -0.9575 -0.2846 -0.0465
vn -0.0000 0.9999 0.0104
vn -0.0000 1.0000 0.0088
vn 0.9352 0.3542 0.0024
vn 0.9283 0.3718 0.0030
vn 0.9189 0.3945 0.0037
vn -0.0000 0.9999 0.0124
vn 0.9933 -0.1153 -0.0116
vn 0.9943 -0.1063 -0.0092
vn 0.9705 -0.2395 -0.0281
vn 0.9654 -0.2584 -0.0347
vn 0.9575 -0.2846 -0.0465
vn 0.9917 -0.1279 -0.0155
vn 0.0000 -0.9895 -0.1444
vn 0.0000 -0.9918 -0.1280
vn 0.0000 -0.9847 -0.1745
vn -0.9891 -0.1439 -0.0300
vn -0.9447 -0.3201 -0.0714
vn -0.9082 0.4186 -0.0027
vn 0.0000 0.9999 0.0112
vn 0.9082 0.4186 -0.0027
vn 0.9891 -0.1439 -0.0300
vn 0.9447 -0.3201 -0.0714
vn 0.0000 -0.9739 -0.2272
vn 0.0000 -0.9967 -0.0817
vn 0.9738 -0.2266 -0.0177
vn -0.9738 -0.2266 -0.0177
vn 0.9949 -0.1004 -0.0058
vn 0.9403 0.3403 0.0014
vn 0.0000 1.0000 0.0055
vn -0.9403 0.3403 0.0014
vn -0.9949 -0.1004 -0.0058
usemtl steel
s 1
f 91/150/43 92/151/44 93/152/45 94/153/46
f 91/150/43 94/153/46 95/154/47 96/155/48
f 91/150/43 96/155/48 97/156/49 98/157/50
f 91/150/43 98/157/50 99/158/51 92/151/44
f 100/159/52 101/160/53 102/161/54 103/162/55
f 100/159/52 103/162/55 104/163/56 105/164/57
f 100/159/52 105/164/57 106/165/58 107/166/59
f 100/159/52 107/166/59 108/167/60 101/160/53
f 109/168/61 110/169/62 111/170/63 112/171/64
f 109/168/61 112/171/64 113/172/65 114/173/66
f 109/168/61 114/173/66 108/167/60 107/166/59
f 109/168/61 107/166/59 106/165/58 110/169/62
f 115/174/67 116/175/68 117/176/69 118/177/70
f 115/174/67 118/177/70 111/178/63 110/179/62
f 115/174/67 110/179/62 106/180/58 105/181/57
f 115/174/67 105/181/57 104/182/56 116/175/68
f 119/183/71 120/184/72 121/185/73 122/186/74
f 119/183/71 122/186/74 117/187/69 116/188/68
f 119/183/71 116/188/68 104/189/56 103/190/55
f 119/183/71 103/190/55 102/191/54 120/184/72
f 123/192/75 114/193/66 113/194/65 124/195/76
f 123/192/75 124/195/76 121/196/73 120/197/72
f 123/192/75 120/197/72 102/198/54 101/199/53
f 123/192/75 101/199/53 108/200/60 114/193/66
f 125/201/77 126/202/78 95/203/47 94/204/46
f 125/201/77 94/204/46 93/205/45 127/206/79
f 125/201/77 127/206/79 128/207/80 129/208/81
f 125/201/77 129/208/81 130/209/82 126/202/78
f 131/210/83 127/211/79 93/152/45 92/151/44
f 131/210/83 92/151/44 99/158/51 132/212/84
f 131/210/83 132/212/84 133/213/85 134/214/86
f 131/210/83 134/214/86 128/215/80 127/211/79
f 135/216/87 132/217/84 99/218/51 98/219/50
f 135/216/87 98/219/50 97/220/49 136/221/88
f 135/216/87 136/221/88 137/222/89 138/223/90
f 135/216/87 138/223/90 133/224/85 132/217/84
f 139/225/91 136/226/88 97/227/49 96/228/48
f 139/225/91 96/228/48 95/229/47 126/230/78
f 139/225/91 126/230/78 130/231/82 140/232/92
f 139/225/91 140/232/92 137/233/89 136/226/88
f 141/234/93 142/235/94 130/209/82 129/208/81
f 141/234/93 129/208/81 128/207/80 143/236/95
f 141/234/93 143/236/95 144/237/96 145/238/97
f 141/234/93 145/238/97 146/239/98 142/235/94
f 147/240/99 143/241/95 128/215/80 134/214/86
f 147/240/99 134/214/86 133/213/85 148/242/100
f 147/240/99 148/242/100 149/243/101 150/244/102
f 147/240/99 150/244/102 144/245/96 143/241/95
f 151/246/103 148/247/100 133/224/85 138/223/90
f 151/246/103 138/223/90 137/222/89 152/248/104
f 151/246/103 152/248/104 153/249/105 154/250/106
f 151/246/103 154/250/106 149/251/101 148/247/100
f 155/252/107 152/253/104 137/233/89 140/232/92
f 155/252/107 140/232/92 130/231/82 142/254/94
f 155/252/107 142/254/94 146/255/98 156/256/108
f 155/252/107 156/256/108 153/257/105 152/253/104
f 157/258/109 158/259/110 159/260/111 160/261/112
f 157/258/109 160/261/112 161/262/113 162/263/114
f 157/258/109 162/263/114 163/264/115 164/265/116
f 157/258/109 164/265/116 165/266/117 158/259/110
f 166/267/118 162/268/114 161/269/113 167/270/119
f 166/267/118 167/270/119 168/271/120 169/272/121
f 166/267/118 169/272/121 170/273/122 171/274/123
f 166/267/118 171/274/123 163/275/115 162/268/114
f 172/276/124 169/277/121 168/278/120 173/279/125
f 172/276/124 173/279/125 174/280/126 175/281/127
f 172/276/124 175/281/127 176/282/128 177/283/129
f 172/276/124 177/283/129 170/284/122 169/277/121
f 178/285/130 175/286/127 174/287/126 179/288/131
f 178/285/130 179/288/131 159/289/111 158/290/110
f 178/285/130 158/290/110 165/291/117 180/292/132
f 178/285/130 180/292/132 176/293/128 175/286/127
f 181/294/133 182/295/134 165/266/117 164/265/116
f 181/294/133 164/265/116 163/264/115 183/296/135
f 181/294/133 183/296/135 121/196/73 124/195/76
f 181/294/133 124/195/76 113/194/65 182/295/134
f 184/297/136 183/298/135 163/275/115 171/274/123
f 184/297/136 171/274/123 170/273/122 185/299/137
f 184/297/136 185/299/137 117/187/69 122/186/74
f 184/297/136 122/186/74 121/185/73 183/298/135
f 186/300/138 185/301/137 170/284/122 177/283/129
f 186/300/138 177/283/129 176/282/128 187/302/139
f 186/300/138 187/302/139 111/178/63 118/177/70
f 186/300/138 118/177/70 117/176/69 185/301/137
f 188/303/140 187/304/139 176/293/128 180/292/132
f 188/303/140 180/292/132 165/291/117 182/305/134
f 188/303/140 182/305/134 113/172/65 112/171/64
f 188/303/140 112/171/64 111/170/63 187/304/139
f 189/306/141 190/307/142 153/257/105 156/256/108
f 189/306/141 156/256/108 146/255/98 191/308/143
f 189/306/141 191/308/143 159/289/111 179/288/131
f 189/306/141 179/288/131 174/287/126 190/307/142
f 192/309/144 193/310/145 149/251/101 154/250/106
f 192/309/144 154/250/106 153/249/105 190/311/142
f 192/309/144 190/311/142 174/280/126 173/279/125
f 192/309/144 173/279/125 168/278/120 193/310/145
f 194/312/146 195/313/147 144/245/96 150/244/102
f 194/312/146 150/244/102 149/243/101 193/314/145
f 194/312/146 193/314/145 168/271/120 167/270/119
f 194/312/146 167/270/119 161/269/113 195/313/147
f 196/315/148 191/316/143 146/239/98 145/238/97
f 196/315/148 145/238/97 144/237/96 195/317/147
f 196/315/148 195/317/147 161/262/113 160/261/112
f 196/315/148 160/261/112 159/260/111 191/316/143
